<svg xmlns="http://www.w3.org/2000/svg" viewBox="0 0 284.58 284.58"><defs><clipPath id="a"><path style="stroke-width:0;fill:none" d="M80.12 67.75h124.34v149.07H80.12z"/></clipPath></defs><circle cx="142.29" cy="142.29" r="138.56" style="fill:#030404;stroke-width:0"/><g style="clip-path:url(#a)"><path d="M204.47 216.15c-3.51.44-7.04.66-10.58.67-14.6 0-26.31-4.94-35.29-21.13l-30.59-55.31-12.59.9v57.33c0 12.36 5.62 14.39 23.38 15.06v2.7c-8.76-.45-17.98-.67-27.21-.67-10.79 0-21.35.24-31.47.67v-2.7c13.93.46 17.98-3.37 17.98-15.06V84.83c0-11.92-2.91-13.93-16.4-14.39v-2.68l31.7.44 11.47-.24c36.43-.44 53.97 9.91 53.97 36.67 0 20.69-14.83 30.12-33.06 33.95 9.45 18.21 21.81 39.57 30.58 53.06 12.82 19.79 20.01 21.59 28.11 21.59v2.93zM115.41 72.24v64.31l14.83-.9c17.55-1.11 31.27-12.36 31.27-31.7 0-22.49-13.95-32.15-36.88-31.92l-9.21.22z" style="fill:#fff9ea;stroke-width:0"/></g></svg>