<svg id="Calque_1" xmlns="http://www.w3.org/2000/svg" viewBox="0 0 587.67 339.02"><defs><style>.cls-1{fill:#040506;stroke-width:0}</style></defs><path class="cls-1" d="M153.53 160.3c-2.38.28-4.47.42-6.56.42-9.06 0-16.32-3.07-21.89-13.11l-18.97-34.3-7.81.56v35.56c0 7.67 3.48 8.93 14.5 9.34v1.68c-5.43-.28-11.15-.42-16.88-.42-6.69 0-13.24.14-19.52.42v-1.68c8.64.28 11.15-2.09 11.15-9.34V78.86c0-7.39-1.81-8.64-10.18-8.93v-1.67l19.66.28 7.12-.14c22.59-.28 33.47 6.14 33.47 22.73 0 12.83-9.2 18.68-20.5 21.06 5.86 11.29 13.53 24.54 18.97 32.91 7.95 12.28 12.41 13.39 17.43 13.39v1.81zM98.3 71.05v39.88l9.2-.56c10.88-.69 19.39-7.67 19.39-19.66 0-13.95-8.65-19.94-22.88-19.8l-5.72.13zM181.55 120.41l-8.93 29.01c-2.23 9.07 3.63 9.34 11.85 9.48v1.53c-4.6-.28-9.62-.28-14.64-.28s-10.04 0-14.64.28v-1.53c9.34-.83 11.43-1.95 13.53-8.78l25.24-83.53h2.09l27.76 85.07c3.07 7.25 5.16 6.69 12.83 7.25v1.53c-5.86-.28-11.85-.28-17.71-.28s-11.86 0-17.85.28v-1.53c5.16 0 13.11-.7 10.46-9.21l-9.21-29.43-20.78.14zm19.94-3.21-9.63-30.68-9.34 30.68h18.97zM238.29 158.9c7.81.28 11.15-2.79 11.15-10.88V80.66c0-8.09-3.34-11.02-11.15-10.74v-1.67c5.43.13 11.02.28 16.59.28s11.02-.14 16.46-.28v1.67c-7.82-.28-11.16 2.65-11.16 10.74v67.36c0 8.08 3.34 11.15 11.16 10.88v1.53c-6.42-.28-11.44-.28-16.46-.28s-10.18 0-16.59.28v-1.53zM274.53 153.6l2.23-23.01h1.68c-.7 15.9 5.86 29.14 21.33 29.14 10.6 0 18.97-6.97 18.97-17.98 0-27.62-41.42-26.64-41.42-51.88 0-16.59 11.43-24.13 27.48-24.13 6.41 0 14.23 2.52 19.66 6.28l-.69 23.43h-1.68c-2.51-12.98-1.96-26.63-18.13-26.78-12.13 0-17.43 7.81-17.43 15.89 0 20.93 41.69 21.06 41.69 52.58 0 17.72-15.62 25.53-29.28 25.66-9.07 0-21.06-3.34-24.41-9.2zM329.88 158.9c7.81.28 11.15-2.79 11.15-10.88V80.66c0-8.09-3.34-11.02-11.15-10.74v-1.67c5.43.13 11.02.28 16.59.28s11.02-.14 16.46-.28v1.67c-7.82-.28-11.16 2.65-11.16 10.74v67.36c0 8.08 3.34 11.15 11.16 10.88v1.53c-6.42-.28-11.44-.28-16.46-.28s-10.18 0-16.59.28v-1.53zM364.44 158.76c7.81.28 11.15-2.79 11.15-10.88V80.52c0-8.08-3.34-10.88-11.15-10.6v-1.67c6.83.42 13.67.28 20.5-.14l40.58 72.1V80.66c0-8.09-3.34-11.02-11.16-10.74v-1.67c6.14.28 10.18.42 14.37.42 3.77 0 7.53-.14 12.83-.42v1.67c-10.46.43-12.28 3.08-12.28 10.88v79.63h-4.88l-45.04-77.82v65.13c0 7.81 1.82 10.6 12.28 11.02v1.68c-5.3-.28-9.07-.42-12.83-.42-4.18 0-8.23.14-14.36.42v-1.68zM473.59 161.83c-25.24 0-33.88-24.54-33.88-47.69s9.34-48.39 33.88-48.39c10.04 0 20.37 2.93 27.76 9.77-1.12 8.64-.84 17.01-1.54 25.66h-1.95c-.83-13.95-3.63-33.05-22.18-33.05-20.92 0-23.7 28.87-23.7 46.02 0 16.18 2.09 45.47 22.31 45.47 6.42 0 18.83-2.93 18.83-11.3v-19.53c0-8.64-3.21-8.78-9.9-9.76v-2.09c5.44.42 9.63.56 15.06.56s7.82-.14 12.98-.56v2.09c-6.28 1.12-8.79 1.39-8.79 9.34 0 7.25.14 13.39.14 20.36 0 2.09-.7 3.77-2.09 5.03-6.69 5.43-18.97 8.08-26.92 8.08zM207.51 269.38c7.82.28 11.16-2.79 11.16-10.88v-36.54l-34.44.28v36.26c0 8.08 3.34 11.15 11.16 10.88v1.53c-6.42-.28-11.44-.28-16.46-.28s-10.18 0-16.59.28v-1.53c7.81.28 11.15-2.79 11.15-10.88v-67.36c0-8.09-3.34-11.02-11.15-10.74v-1.67c5.43.13 11.02.28 16.59.28s11.02-.14 16.46-.28v1.67c-7.82.14-11.16 2.65-11.16 10.74v28.17h34.44v-28.17c0-8.09-3.34-11.02-11.16-10.74v-1.67c5.44.13 11.02.28 16.6.28s11.02-.14 16.46-.28v1.67c-7.82-.28-11.16 2.65-11.16 10.74v67.36c0 8.08 3.34 11.15 11.16 10.88v1.53c-6.42-.28-11.44-.28-16.46-.28s-10.18 0-16.6.28v-1.53z"/><path class="cls-1" d="M283.98 176.22c26.63 0 28.73 26.36 23.85 48.25-4.88 21.9-18.69 47.83-45.33 47.83s-28.58-25.93-23.71-47.83c4.88-21.89 18.55-48.25 45.18-48.25zm-20.92 93.86c20.23 0 29.43-28.87 33.19-45.47 3.63-16.32 6.83-46.3-12.97-46.3s-29.43 30.4-32.92 46.3c-3.48 16.18-7.25 45.47 12.69 45.47z"/><path class="cls-1" d="M329.42 228.52v31.38c0 7.67 3.48 8.93 14.5 9.34v1.68c-5.43-.28-11.15-.42-16.88-.42-6.69 0-13.24.14-19.52.42v-1.68c8.64.28 11.15-2.09 11.15-9.34v-70.57c0-7.39-1.81-8.64-10.18-8.93v-1.67l19.66.28 7.12-.14c22.59-.28 33.47 7.53 33.47 24.13s-13.94 23.85-28.45 24.83l-10.88.7zm0-47v44.07l9.2-.56c10.88-.69 19.39-10.46 19.39-22.45 0-13.94-8.65-21.33-22.88-21.19l-5.72.13zM371.64 264.08l2.23-23.01h1.68c-.7 15.9 5.86 29.14 21.33 29.14 10.6 0 18.97-6.97 18.97-17.98 0-27.62-41.42-26.64-41.42-51.88 0-16.59 11.43-24.13 27.48-24.13 6.41 0 14.23 2.52 19.66 6.28l-.69 23.43h-1.68c-2.51-12.98-1.96-26.63-18.13-26.78-12.13 0-17.43 7.81-17.43 15.9 0 20.92 41.69 21.05 41.69 52.57 0 17.72-15.62 25.53-29.28 25.66-9.07 0-21.06-3.34-24.41-9.2z"/></svg>